<svg xmlns="http://www.w3.org/2000/svg" viewBox="0 0 256 256">
  <path d="M18 84C72 23 184 23 238 84C181 50 75 50 18 84Z"/>
  <path fill-rule="evenodd" d="M22 207L42 139H58L73 207H58L55 193H36L32 207H22ZM40 181H52L47 156L40 181Z"/>
  <path fill-rule="evenodd" d="M101 207V139H128C145 139 154 148 154 164C154 180 144 189 128 189H116V207H101ZM116 151V177H127C135 177 139 173 139 164C139 155 135 151 127 151H116Z"/>
  <path fill-rule="evenodd" d="M177 207V139H204C221 139 230 148 230 164C230 180 220 189 204 189H192V207H177ZM192 151V177H203C211 177 215 173 215 164C215 155 211 151 203 151H192Z"/>
</svg>
